<?xml version="1.0" standalone="no"?><?xml-stylesheet type="text/css" href="https://wps.processon.com/themes/default/wps/mind/icons/icons.css" ?><!DOCTYPE svg PUBLIC "-//W3C//DTD SVG 1.1//EN" "http://www.w3.org/Graphics/SVG/1.1/DTD/svg11.dtd"><svg id="SvgjsSvg1006" width="691.985666510165" height="387.5" xmlns="http://www.w3.org/2000/svg" version="1.1" xmlns:xlink="http://www.w3.org/1999/xlink" xmlns:svgjs="http://svgjs.com/svgjs"><defs id="SvgjsDefs1007"><pattern patternUnits="userSpaceOnUse" id="pattern_mark_0" width="300" height="300"><text x="150" y="100" fill="rgba(229,229,229,0.8)" font-size="18" transform="rotate(-45, 150, 150)" style="dominant-baseline: middle; text-anchor: middle;"></text></pattern><pattern patternUnits="userSpaceOnUse" id="pattern_mark_1" width="300" height="300"><text x="150" y="200" fill="rgba(229,229,229,0.8)" font-size="18" transform="rotate(-45, 150, 150)" style="dominant-baseline: middle; text-anchor: middle;"></text></pattern></defs><rect id="svgbackgroundid" width="691.985666510165" height="387.5" fill="rgb(255,255,255)"></rect><rect id="SvgjsRect1009" width="691.985666510165" height="387.5" fill="url(#pattern_mark_0)"></rect><rect id="SvgjsRect1010" width="691.985666510165" height="387.5" fill="url(#pattern_mark_1)"></rect><g id="SvgjsG1011" transform="translate(63.685666510165106,35)"><path id="SvgjsPath1012" d="M 16.667 0L 83.333 0C 105.556 0 105.556 50 83.333 50L 16.667 50C -5.556 50 -5.556 0 16.667 0Z" stroke="none" fill-opacity="1" fill="#ff9999"></path><g id="SvgjsG1013"><text id="SvgjsText1014" font-family="思源宋体" text-anchor="middle" font-size="15px" width="80px" fill="#ffffff" font-weight="700" align="middle" lineHeight="125%" anchor="middle" family="思源宋体" size="15px" weight="700" font-style="" opacity="1" y="13.125" transform="rotate(0)"><tspan id="SvgjsTspan1015" dy="18.75" x="50"><tspan id="SvgjsTspan1016" style="">初始侦查</tspan></tspan></text></g></g><g id="SvgjsG1017" transform="translate(172.6856665101651,166)"><path id="SvgjsPath1018" d="M 16.667 0L 139.333 0C 161.556 0 161.556 50 139.333 50L 16.667 50C -5.556 50 -5.556 0 16.667 0Z" stroke="rgba(0,0,0,1)" stroke-width="2" fill-opacity="1" fill="#ffffff"></path><g id="SvgjsG1019"><text id="SvgjsText1020" font-family="思源宋体" text-anchor="middle" font-size="13px" width="136px" fill="#323232" font-weight="400" align="middle" lineHeight="125%" anchor="middle" family="思源宋体" size="13px" weight="400" font-style="" opacity="1" y="14.375" transform="rotate(0)"><tspan id="SvgjsTspan1021" dy="16.25" x="78"><tspan id="SvgjsTspan1022" style="">服务器规则拦截</tspan></tspan></text></g></g><g id="SvgjsG1023" transform="translate(471.6856665101651,166)"><path id="SvgjsPath1024" d="M 16.667 0L 139.333 0C 161.556 0 161.556 50 139.333 50L 16.667 50C -5.556 50 -5.556 0 16.667 0Z" stroke="rgba(234,152,112,1)" stroke-width="2" fill-opacity="1" fill="#ffffff"></path><g id="SvgjsG1025"><text id="SvgjsText1026" font-family="思源宋体" text-anchor="middle" font-size="13px" width="136px" fill="#323232" font-weight="400" align="middle" lineHeight="125%" anchor="middle" family="思源宋体" size="13px" weight="400" font-style="" opacity="1" y="14.375" transform="rotate(0)"><tspan id="SvgjsTspan1027" dy="16.25" x="78"><tspan id="SvgjsTspan1028" style="">构造第一层payload</tspan></tspan></text></g></g><g id="SvgjsG1029" transform="translate(565.1856665101651,312.5)"><path id="SvgjsPath1030" d="M 16.667 0L 83.333 0C 105.556 0 105.556 50 83.333 50L 16.667 50C -5.556 50 -5.556 0 16.667 0Z" stroke="none" fill-opacity="1" fill="#99ccff"></path><g id="SvgjsG1031"><text id="SvgjsText1032" font-family="思源宋体" text-anchor="middle" font-size="15px" width="80px" fill="#ffffff" font-weight="700" align="middle" lineHeight="125%" anchor="middle" family="思源宋体" size="15px" weight="700" font-style="" opacity="1" y="13.125" transform="rotate(0)"><tspan id="SvgjsTspan1033" dy="18.75" x="50"><tspan id="SvgjsTspan1034" style="">flag泄漏</tspan></tspan></text></g></g><g id="SvgjsG1035" transform="translate(74.6856665101651,313)"><path id="SvgjsPath1036" d="M 16.333 0L 114.667 0C 136.444 0 136.444 49 114.667 49L 16.333 49C -5.444 49 -5.444 0 16.333 0Z" stroke="rgba(227,98,126,1)" stroke-width="2" fill-opacity="1" fill="#ffffff"></path><g id="SvgjsG1037"><text id="SvgjsText1038" font-family="思源宋体" text-anchor="middle" font-size="13px" width="111px" fill="#323232" font-weight="400" align="middle" lineHeight="125%" anchor="middle" family="思源宋体" size="13px" weight="400" font-style="" opacity="1" y="13.875" transform="rotate(0)"><tspan id="SvgjsTspan1039" dy="16.25" x="65.5"><tspan id="SvgjsTspan1040" style="">加深嵌套</tspan></tspan></text></g></g><g id="SvgjsG1041" transform="translate(342.1856665101651,313)"><path id="SvgjsPath1042" d="M 16.333 0L 114.667 0C 136.444 0 136.444 49 114.667 49L 16.333 49C -5.444 49 -5.444 0 16.333 0Z" stroke="rgba(0,0,0,1)" stroke-width="2" fill-opacity="1" fill="#ffffff"></path><g id="SvgjsG1043"><text id="SvgjsText1044" font-family="思源宋体" text-anchor="middle" font-size="13px" width="111px" fill="#323232" font-weight="400" align="middle" lineHeight="125%" anchor="middle" family="思源宋体" size="13px" weight="400" font-style="" opacity="1" y="13.875" transform="rotate(0)"><tspan id="SvgjsTspan1045" dy="16.25" x="65.5"><tspan id="SvgjsTspan1046" style="">文件包含执行</tspan></tspan></text></g></g><g id="SvgjsG1047" transform="translate(397.6856665101651,181)"><path id="SvgjsPath1048" d="M 0 10C 0 -3.333 20 -3.333 20 10C 20 23.333 0 23.333 0 10Z" stroke-dasharray="5,2" stroke="rgba(33,41,48,1)" stroke-width="1" fill-opacity="1" fill="#ffffff"></path><g id="SvgjsG1049"><text id="SvgjsText1050" font-family="思源宋体" text-anchor="middle" font-size="13px" width="0px" fill="#323232" font-weight="400" align="middle" lineHeight="125%" anchor="middle" family="思源宋体" size="13px" weight="400" font-style="" opacity="1" y="-0.625" transform="rotate(0)"></text></g></g><g id="SvgjsG1051"><path id="SvgjsPath1052" d="M628.415499099799 60.172755292562016C 680.0856665101651 60.00000000000003 680.0856665101651 191 628.658776629677 190.7696596099173" stroke-dasharray="2,3" stroke="#000000" stroke-width="2" fill="none"></path></g><g id="SvgjsG1053"><path id="SvgjsPath1054" d="M470.6856665101651 191L444.6856665101651 191L444.6856665101651 191L418.1856665101651 191" stroke-dasharray="2,3" stroke="#000000" stroke-width="2" fill="none"></path></g><g id="SvgjsG1055"><path id="SvgjsPath1056" d="M397.1856665101651 191L363.1856665101651 191L363.1856665101651 191L329.6856665101651 191" stroke-dasharray="2,3" stroke="#000000" stroke-width="2" fill="none"></path></g><g id="SvgjsG1057"><path id="SvgjsPath1058" d="M63.86546257202224 191.13795054761272C 5.185666510165106 189.5 15.947036101889495 337.5 73.70676435764315 337.2956704236096" stroke-dasharray="2,3" stroke="#000000" stroke-width="2" fill="none"></path></g><g id="SvgjsG1059"><path id="SvgjsPath1060" d="M206.6856665101651 337.5L273.9356665101651 337.5L273.9356665101651 337.5L341.1856665101651 337.5" stroke-dasharray="2,3" stroke="#000000" stroke-width="2" fill="none"></path></g><g id="SvgjsG1061"><path id="SvgjsPath1062" d="M474.1856665101651 337.5L519.1856665101651 337.5L519.1856665101651 337.5L565.1856665101651 337.5" stroke-dasharray="2,3" stroke="#000000" stroke-width="2" fill="none"></path></g><g id="SvgjsG1063" transform="translate(254.6856665101651,77)"><path id="SvgjsPath1064" d="M 0 0L 93 0L 93 40L 0 40Z" stroke="none" fill="none"></path><g id="SvgjsG1065"><text id="SvgjsText1066" font-family="思源宋体" text-anchor="middle" font-size="17px" width="93px" fill="#323232" font-weight="700" align="middle" lineHeight="125%" anchor="middle" family="思源宋体" size="17px" weight="700" font-style="" opacity="1" y="5.375" transform="rotate(0)"><tspan id="SvgjsTspan1067" dy="21.25" x="46.5"><tspan id="SvgjsTspan1068" style="">侦查阶段</tspan></tspan></text></g></g><g id="SvgjsG1069" transform="translate(503.1856665101651,110.5)"><path id="SvgjsPath1070" d="M 0 0L 93 0L 93 40L 0 40Z" stroke="none" fill="none"></path><g id="SvgjsG1071"><text id="SvgjsText1072" font-family="思源宋体" text-anchor="middle" font-size="17px" width="93px" fill="#323232" font-weight="700" align="middle" lineHeight="125%" anchor="middle" family="思源宋体" size="17px" weight="700" font-style="" opacity="1" y="5.375" transform="rotate(0)"><tspan id="SvgjsTspan1073" dy="21.25" x="46.5"><tspan id="SvgjsTspan1074" style="">初步尝试</tspan></tspan></text></g></g><g id="SvgjsG1075" transform="translate(221.9356665101651,287.5)"><path id="SvgjsPath1076" d="M 0 0L 93 0L 93 40L 0 40Z" stroke="none" fill="none"></path><g id="SvgjsG1077"><text id="SvgjsText1078" font-family="思源宋体" text-anchor="middle" font-size="17px" width="93px" fill="#323232" font-weight="700" align="middle" lineHeight="125%" anchor="middle" family="思源宋体" size="17px" weight="700" font-style="" opacity="1" y="5.375" transform="rotate(0)"><tspan id="SvgjsTspan1079" dy="21.25" x="46.5"><tspan id="SvgjsTspan1080" style="">攻击</tspan></tspan></text></g></g><g id="SvgjsG1081" transform="translate(448.1856665101651,25)"><path id="SvgjsPath1082" d="M 0 35L 89.75 0L 179.5 35L 89.75 70L 0 35Z" stroke="rgba(33,41,48,1)" stroke-width="1.5" fill-opacity="1" fill="#ffffff"></path><g id="SvgjsG1083"><text id="SvgjsText1084" font-family="思源宋体" text-anchor="middle" font-size="13px" width="160px" fill="#323232" font-weight="400" align="middle" lineHeight="125%" anchor="middle" family="思源宋体" size="13px" weight="400" font-style="" opacity="1" y="24.375" transform="rotate(0)"><tspan id="SvgjsTspan1085" dy="16.25" x="90"><tspan id="SvgjsTspan1086" style="">文件包含漏洞</tspan></tspan></text></g></g><g id="SvgjsG1087" transform="translate(57.185666510165106,168.75)"><path id="SvgjsPath1088" d="M 14.833 0L 68 0L 53.167 44.5L 0 44.5L 14.833 0Z" stroke="rgba(33,41,48,1)" stroke-width="1.5" fill-opacity="1" fill="#ffffff"></path><g id="SvgjsG1089"><text id="SvgjsText1090" font-family="思源宋体" text-anchor="middle" font-size="13px" width="48px" fill="#323232" font-weight="400" align="middle" lineHeight="125%" anchor="middle" family="思源宋体" size="13px" weight="400" font-style="" opacity="1" y="11.625" transform="rotate(0)"><tspan id="SvgjsTspan1091" dy="16.25" x="34.2"><tspan id="SvgjsTspan1092" style="">失败</tspan></tspan></text></g></g><g id="SvgjsG1093"><path id="SvgjsPath1094" d="M118.51866651016508 191C 139.6856665101651 191 150.71886651016507 191 171.6856665101651 191" stroke-dasharray="2,3" stroke="#000000" stroke-width="2" fill="none"></path></g><g id="SvgjsG1095"><path id="SvgjsPath1096" d="M447.4356665101651 60C 334.3856665101651 60 277.4856665101651 59.99999999999994 163.6856665101651 60" stroke-dasharray="2,3" stroke="#000000" stroke-width="2" fill="none"></path></g><g id="SvgjsG1097"></g><g id="normal_brand" transform="translate(280.9928332550825,217.75)"><text id="SvgjsText1099" font-family="Helvetica, Arial, sans-serif" style="transform:rotate(-30deg);opacity: 0.09; color:#aaa; font-family: Microsoft Yahei;"><tspan id="SvgjsTspan1100" font-size="26" dy="0" x="0"></tspan></text></g></svg>